<svg width="24" height="23" viewBox="0 0 24 23" fill="none" xmlns="http://www.w3.org/2000/svg">
<path d="M12 12.4583C12.5523 12.4583 13 12.0293 13 11.5C13 10.9707 12.5523 10.5417 12 10.5417C11.4477 10.5417 11 10.9707 11 11.5C11 12.0293 11.4477 12.4583 12 12.4583Z" fill="#231F20"/>
<path d="M16 12.4583C16.5523 12.4583 17 12.0293 17 11.5C17 10.9707 16.5523 10.5417 16 10.5417C15.4477 10.5417 15 10.9707 15 11.5C15 12.0293 15.4477 12.4583 16 12.4583Z" fill="#231F20"/>
<path d="M8 12.4583C8.55228 12.4583 9 12.0293 9 11.5C9 10.9707 8.55228 10.5417 8 10.5417C7.44772 10.5417 7 10.9707 7 11.5C7 12.0293 7.44772 12.4583 8 12.4583Z" fill="#231F20"/>
<path d="M19.07 4.72458C17.4292 3.14189 15.2636 2.15741 12.9466 1.94085C10.6296 1.7243 8.30635 2.28924 6.37738 3.53829C4.44842 4.78734 3.03463 6.64221 2.37976 8.78313C1.72489 10.9241 1.86997 13.2168 2.79 15.2662C2.88589 15.4567 2.91735 15.6711 2.88 15.8796L2 19.9333C1.96609 20.0887 1.97302 20.2498 2.02014 20.402C2.06727 20.5542 2.15313 20.6929 2.27 20.8054C2.3658 20.8966 2.47987 20.9682 2.60533 21.0159C2.73079 21.0637 2.86504 21.0866 3 21.0833H3.2L7.48 20.2592C7.69753 20.2341 7.91812 20.2638 8.12 20.3454C10.2585 21.2271 12.651 21.3661 14.885 20.7386C17.119 20.111 19.0545 18.7561 20.3579 16.9075C21.6612 15.0589 22.2507 12.8325 22.0248 10.612C21.7988 8.39151 20.7715 6.31617 19.12 4.74375L19.07 4.72458ZM19.9 12.7362C19.7045 13.8805 19.2407 14.9673 18.5435 15.9149C17.8464 16.8626 16.934 17.6463 15.8751 18.2072C14.8162 18.7681 13.6384 19.0915 12.4302 19.1532C11.222 19.2148 10.015 19.013 8.9 18.5629C8.50454 18.4017 8.07973 18.317 7.65 18.3137C7.46228 18.315 7.27498 18.331 7.09 18.3617L4.27 18.9079L4.84 16.2054C4.95352 15.6201 4.88034 15.0157 4.63 14.4708C4.16039 13.4023 3.9498 12.2455 4.01409 11.0877C4.07837 9.92987 4.41586 8.80109 5.00114 7.78631C5.58642 6.77153 6.40425 5.89719 7.39309 5.22909C8.38193 4.56099 9.51601 4.11653 10.71 3.92916C11.9633 3.73205 13.2475 3.82372 14.4565 4.1966C15.6654 4.56947 16.7644 5.21283 17.6625 6.07347C18.5605 6.9341 19.2318 7.98727 19.6209 9.14587C20.01 10.3045 20.1057 11.5352 19.9 12.7362Z" fill="#231F20"/>
</svg>
