<svg width="22" height="22" viewBox="0 0 22 22" fill="none" xmlns="http://www.w3.org/2000/svg">
<path d="M22.0044 11.0022C22.0044 4.93998 17.0644 0 11.0022 0C4.93998 0 0 4.93998 0 11.0022C0 14.1928 1.37527 17.0644 3.55371 19.0778C3.55371 19.0888 3.55371 19.0888 3.5427 19.0998C3.65273 19.2098 3.78475 19.2978 3.89478 19.3969C3.96079 19.4519 4.0158 19.5069 4.08181 19.5509C4.27985 19.7159 4.4999 19.87 4.70894 20.024C4.78595 20.079 4.85197 20.123 4.92898 20.178C5.13802 20.321 5.35807 20.4531 5.58911 20.5741C5.66613 20.6181 5.75415 20.6731 5.83116 20.7171C6.0512 20.8381 6.28225 20.9482 6.5243 21.0472C6.61232 21.0912 6.70033 21.1352 6.78835 21.1682C7.0304 21.2672 7.27245 21.3553 7.5145 21.4323C7.60251 21.4653 7.69053 21.4983 7.77855 21.5203C8.0426 21.5973 8.30665 21.6633 8.57071 21.7293C8.64772 21.7513 8.72474 21.7733 8.81275 21.7843C9.12082 21.8503 9.42888 21.8944 9.74794 21.9274C9.79195 21.9274 9.83596 21.9384 9.87997 21.9494C10.254 21.9824 10.6281 22.0044 11.0022 22.0044C11.3763 22.0044 11.7503 21.9824 12.1134 21.9494C12.1574 21.9494 12.2014 21.9384 12.2454 21.9274C12.5645 21.8944 12.8726 21.8503 13.1806 21.7843C13.2576 21.7733 13.3347 21.7403 13.4227 21.7293C13.6867 21.6633 13.9618 21.6083 14.2148 21.5203C14.3028 21.4873 14.3909 21.4543 14.4789 21.4323C14.7209 21.3442 14.974 21.2672 15.205 21.1682C15.293 21.1352 15.3811 21.0912 15.4691 21.0472C15.7001 20.9482 15.9312 20.8381 16.1622 20.7171C16.2502 20.6731 16.3272 20.6181 16.4043 20.5741C16.6243 20.4421 16.8444 20.321 17.0644 20.178C17.1414 20.134 17.2074 20.079 17.2844 20.024C17.5045 19.87 17.7135 19.7159 17.9116 19.5509C17.9776 19.4959 18.0326 19.4409 18.0986 19.3969C18.2196 19.2978 18.3407 19.1988 18.4507 19.0998C18.4507 19.0888 18.4507 19.0888 18.4397 19.0778C20.6291 17.0644 22.0044 14.1928 22.0044 11.0022ZM16.4373 16.4703C13.4557 14.4679 8.57071 14.4679 5.56711 16.4703C5.08301 16.7893 4.68693 17.1634 4.35687 17.5705C2.68453 15.8762 1.65033 13.5547 1.65033 11.0022C1.65033 5.84216 5.84216 1.65033 11.0022 1.65033C16.1622 1.65033 20.3541 5.84216 20.3541 11.0022C20.3541 13.5547 19.3198 15.8762 17.6475 17.5705C17.3285 17.1634 16.9214 16.7893 16.4373 16.4703Z" fill="#292D32"/>
<path d="M11.0022 5.42374C8.72471 5.42374 6.87634 7.2721 6.87634 9.54957C6.87634 11.783 8.62569 13.5984 10.9472 13.6644H11.0462H11.1232H11.1452C13.3676 13.5874 15.117 11.783 15.128 9.54957C15.128 7.2721 13.2796 5.42374 11.0022 5.42374Z" fill="#292D32"/>
</svg>
